# xmcd
#
# Track frame offsets:
#	150
#	22930
#	45695
#	62492
#	90610
#	118367
#	141777
#	165025
#	179602
#	206205
#	227322
#	254642
#	282325
#	308615
#
# Disc length: 4385 seconds
#
# Revision: 1
# Processed by: cddbd v1.5.1PL0 Copyright (c) Steve Scherf et al.
# Submitted via: CDex 1.50Beta5
#
DISCID=bd111f0e
DTITLE=オリジナル・ラヴ - オリジナル・ラヴ・アーリー・コンプリート Disc 1
DYEAR=2003
DGENRE=Rock
TTITLE0=接吻 kiss
TTITLE1=朝日のあたる道
TTITLE2=夜をぶっとばせ
TTITLE3=It’s a wonderful world
TTITLE4=いつか見上げた空に
TTITLE5=ヴィーナス
TTITLE6=サンシャイン・ロマンス
TTITLE7=JUMPIN’ JACK JIVE
TTITLE8=スキャンダル
TTITLE9=DEEP FRENCH KISS
TTITLE10=ミリオン・シークレッツ・オブ・ジャズ
TTITLE11=WALL FLOWER
TTITLE12=Rover,The
TTITLE13=月の裏で会いましょう(Let’s go to the darkside of the moon)
EXTD=
EXTT0=
EXTT1=
EXTT2=
EXTT3=
EXTT4=
EXTT5=
EXTT6=
EXTT7=
EXTT8=
EXTT9=
EXTT10=
EXTT11=
EXTT12=
EXTT13=
PLAYORDER=
